<svg width="154" height="152" viewBox="0 0 154 152" fill="none" xmlns="http://www.w3.org/2000/svg">
<ellipse cx="75.9724" cy="66.3888" rx="51.3071" ry="39.5317" fill="white"/>
<g filter="url(#filter0_d_8_111)">
<path d="M132.658 44.9303C129.619 37.7925 125.198 31.3047 119.64 25.8285C114.1 20.3429 107.518 15.9814 100.269 12.9918C92.8434 9.91438 84.8648 8.33688 76.8072 8.35303H76.5363C68.3408 8.39302 60.4163 9.99261 52.9523 13.1385C45.7656 16.1587 39.2458 20.5279 33.7573 26.0018C28.2539 31.4657 23.8831 37.9308 20.8884 45.037C17.7797 52.4266 16.2046 60.3534 16.2556 68.351C16.2962 77.6019 18.5449 86.7862 22.7442 94.9975V115.259C22.7442 118.645 25.5348 121.391 28.962 121.391H49.5251C57.9085 125.553 67.1597 127.744 76.5498 127.789H76.8343C84.935 127.789 92.7782 126.243 100.174 123.217C107.387 120.263 113.944 115.952 119.478 110.527C125.059 105.075 129.448 98.7032 132.523 91.5983C135.706 84.2402 137.332 76.4156 137.372 68.3376C137.399 60.2197 135.801 52.3417 132.658 44.9303ZM49.769 74.4694C46.1928 74.4694 43.2803 71.6035 43.2803 68.071C43.2803 64.5386 46.1928 61.6727 49.769 61.6727C53.3452 61.6727 56.2576 64.5386 56.2576 68.071C56.2576 71.6035 53.3587 74.4694 49.769 74.4694ZM76.8072 74.4694C73.231 74.4694 70.3186 71.6035 70.3186 68.071C70.3186 64.5386 73.231 61.6727 76.8072 61.6727C80.3834 61.6727 83.2959 64.5386 83.2959 68.071C83.2959 71.6035 80.3834 74.4694 76.8072 74.4694ZM103.845 74.4694C100.269 74.4694 97.3569 71.6035 97.3569 68.071C97.3569 64.5386 100.269 61.6727 103.845 61.6727C107.422 61.6727 110.334 64.5386 110.334 68.071C110.334 71.6035 107.422 74.4694 103.845 74.4694Z" fill="#FD3968"/>
</g>
<defs>
<filter id="filter0_d_8_111" x="0.454394" y="0.552905" width="152.718" height="151.036" filterUnits="userSpaceOnUse" color-interpolation-filters="sRGB">
<feFlood flood-opacity="0" result="BackgroundImageFix"/>
<feColorMatrix in="SourceAlpha" type="matrix" values="0 0 0 0 0 0 0 0 0 0 0 0 0 0 0 0 0 0 127 0" result="hardAlpha"/>
<feOffset dy="8"/>
<feGaussianBlur stdDeviation="7.9"/>
<feComposite in2="hardAlpha" operator="out"/>
<feColorMatrix type="matrix" values="0 0 0 0 1 0 0 0 0 1 0 0 0 0 1 0 0 0 0.4 0"/>
<feBlend mode="normal" in2="BackgroundImageFix" result="effect1_dropShadow_8_111"/>
<feBlend mode="normal" in="SourceGraphic" in2="effect1_dropShadow_8_111" result="shape"/>
</filter>
</defs>
</svg>
