<svg width="154" height="154" viewBox="0 0 154 154" fill="none" xmlns="http://www.w3.org/2000/svg">
<g filter="url(#filter0_d_8_117)">
<path d="M77.3025 126.351C110.813 126.351 137.978 99.1854 137.978 65.6753C137.978 32.1653 110.813 5 77.3025 5C43.7925 5 16.6272 32.1653 16.6272 65.6753C16.6272 99.1854 43.7925 126.351 77.3025 126.351Z" fill="#5342FF"/>
<path d="M108.825 47.0461C106.597 48.0297 104.215 48.6934 101.703 49.0015C104.263 47.4609 106.23 45.0315 107.154 42.1399C104.76 43.5383 102.094 44.5575 99.2736 45.1263C97.0102 42.7088 93.7986 41.1919 90.2197 41.1919C83.37 41.1919 77.8121 46.7499 77.8121 53.5877C77.8121 54.5713 77.9306 55.5193 78.1321 56.42C67.822 55.9341 58.6733 50.9805 52.5584 43.4909C51.4799 45.3159 50.8756 47.4253 50.8756 49.7362C50.8756 54.0499 53.0679 57.8421 56.398 60.07C54.3597 59.9989 52.4517 59.4419 50.7808 58.5175V58.6716C50.7808 64.6917 55.047 69.7046 60.7353 70.8422C59.6924 71.1266 58.5903 71.2689 57.4645 71.2689C56.6705 71.2689 55.9121 71.1977 55.1536 71.0555C56.7416 75.9854 61.316 79.5762 66.7673 79.671C62.5366 83.001 57.1564 84.9801 51.3851 84.9801C50.4015 84.9801 49.4179 84.9208 48.4343 84.8141C53.9567 88.3338 60.4627 90.384 67.4902 90.384C90.3027 90.384 102.781 71.4822 102.781 55.1164C102.781 54.595 102.781 54.0617 102.746 53.5284C105.163 51.7864 107.285 49.594 108.944 47.1054L108.825 47.0461Z" fill="white"/>
</g>
<defs>
<filter id="filter0_d_8_117" x="0.827197" y="0.2" width="152.951" height="152.951" filterUnits="userSpaceOnUse" color-interpolation-filters="sRGB">
<feFlood flood-opacity="0" result="BackgroundImageFix"/>
<feColorMatrix in="SourceAlpha" type="matrix" values="0 0 0 0 0 0 0 0 0 0 0 0 0 0 0 0 0 0 127 0" result="hardAlpha"/>
<feOffset dy="11"/>
<feGaussianBlur stdDeviation="7.9"/>
<feComposite in2="hardAlpha" operator="out"/>
<feColorMatrix type="matrix" values="0 0 0 0 1 0 0 0 0 1 0 0 0 0 1 0 0 0 0.25 0"/>
<feBlend mode="normal" in2="BackgroundImageFix" result="effect1_dropShadow_8_117"/>
<feBlend mode="normal" in="SourceGraphic" in2="effect1_dropShadow_8_117" result="shape"/>
</filter>
</defs>
</svg>
