<svg width="154" height="154" viewBox="0 0 154 154" fill="none" xmlns="http://www.w3.org/2000/svg">
<g filter="url(#filter0_d_8_123)">
<path d="M76.6753 129.351C110.185 129.351 137.351 102.185 137.351 68.6753C137.351 35.1653 110.185 8 76.6753 8C43.1653 8 16 35.1653 16 68.6753C16 102.185 43.1653 129.351 76.6753 129.351Z" fill="#FF910C"/>
<path d="M76.6757 38.3376C68.4395 38.3376 67.4085 38.3732 64.1732 38.5154C60.938 38.6695 58.7456 39.179 56.814 39.9256C54.8231 40.6959 53.1284 41.7388 51.4338 43.4216C49.7391 45.1044 48.7081 46.799 47.9378 48.8018C47.1912 50.7334 46.6817 52.9376 46.5276 56.161C46.3736 59.3963 46.3499 60.4273 46.3499 68.6635C46.3499 76.8997 46.3854 77.9307 46.5276 81.1659C46.6817 84.3893 47.1912 86.5935 47.9378 88.5252C48.7081 90.5161 49.751 92.2107 51.4338 93.9054C53.1166 95.5881 54.8112 96.631 56.814 97.4013C58.7456 98.1479 60.9499 98.6575 64.1732 98.8115C67.4085 98.9656 68.4395 98.9893 76.6757 98.9893C84.9119 98.9893 85.9429 98.9537 89.1781 98.8115C92.4015 98.6575 94.6057 98.1479 96.5374 97.4013C98.5283 96.631 100.223 95.5881 101.918 93.9054C103.6 92.2226 104.643 90.5279 105.413 88.5252C106.16 86.5935 106.67 84.3893 106.824 81.1659C106.978 77.9307 107.001 76.8997 107.001 68.6635C107.001 60.4273 106.966 59.3963 106.824 56.161C106.67 52.9376 106.16 50.7334 105.413 48.8018C104.643 46.8109 103.6 45.1162 101.918 43.4216C100.235 41.7388 98.5401 40.6959 96.5374 39.9256C94.6057 39.179 92.4015 38.6695 89.1781 38.5154C85.9429 38.3732 84.9119 38.3376 76.6757 38.3376ZM76.6757 43.8008C84.7697 43.8008 85.7414 43.8363 88.9411 43.9786C91.9038 44.1208 93.5036 44.6066 94.5702 45.0333C95.9922 45.5784 96.9995 46.242 98.0661 47.2967C99.1208 48.3633 99.7844 49.3706 100.33 50.7927C100.744 51.8592 101.242 53.4591 101.372 56.4217C101.515 59.6214 101.55 60.5813 101.55 68.6872C101.55 76.793 101.515 77.7529 101.361 80.9526C101.207 83.9153 100.709 85.5151 100.294 86.5816C99.7252 88.0037 99.0852 89.011 98.0187 90.0776C96.964 91.1323 95.933 91.7959 94.5346 92.3411C93.468 92.7558 91.8445 93.2536 88.8818 93.3839C85.6585 93.5261 84.7104 93.5617 76.5927 93.5617C68.475 93.5617 67.527 93.5261 64.3036 93.3721C61.3409 93.218 59.7174 92.7203 58.6508 92.3055C57.2169 91.7367 56.2214 91.0968 55.1667 90.0302C54.1002 88.9755 53.4247 87.9445 52.8914 86.5461C52.4766 85.4795 51.9789 83.856 51.8249 80.8933C51.7063 77.7055 51.6708 76.7219 51.6708 68.6516C51.6708 60.5695 51.7063 59.5859 51.8249 56.3625C51.9789 53.3998 52.4648 51.7763 52.8914 50.7097C53.4247 49.2639 54.1002 48.2803 55.1667 47.2138C56.2214 46.1591 57.2169 45.4717 58.6508 44.9385C59.7174 44.5237 61.3054 44.026 64.268 43.8719C67.4914 43.7534 68.4395 43.7178 76.5572 43.7178L76.6757 43.8008ZM76.6757 53.0917C68.0721 53.0917 61.0921 60.0717 61.0921 68.6753C61.0921 77.2789 68.0721 84.2589 76.6757 84.2589C85.2792 84.2589 92.2593 77.2789 92.2593 68.6753C92.2593 60.0717 85.2792 53.0917 76.6757 53.0917ZM76.6757 78.7839C71.094 78.7839 66.5671 74.257 66.5671 68.6753C66.5671 63.0937 71.094 58.5667 76.6757 58.5667C82.2573 58.5667 86.7843 63.0937 86.7843 68.6753C86.7843 74.257 82.2573 78.7839 76.6757 78.7839ZM96.5137 52.4873C96.5137 54.5019 94.8783 56.1255 92.8755 56.1255C90.8609 56.1255 89.2374 54.4901 89.2374 52.4873C89.2374 50.4846 90.8728 48.8492 92.8755 48.8492C94.8783 48.8373 96.5137 50.4727 96.5137 52.4873Z" fill="white"/>
</g>
<defs>
<filter id="filter0_d_8_123" x="0.2" y="0.2" width="152.951" height="152.951" filterUnits="userSpaceOnUse" color-interpolation-filters="sRGB">
<feFlood flood-opacity="0" result="BackgroundImageFix"/>
<feColorMatrix in="SourceAlpha" type="matrix" values="0 0 0 0 0 0 0 0 0 0 0 0 0 0 0 0 0 0 127 0" result="hardAlpha"/>
<feOffset dy="8"/>
<feGaussianBlur stdDeviation="7.9"/>
<feComposite in2="hardAlpha" operator="out"/>
<feColorMatrix type="matrix" values="0 0 0 0 1 0 0 0 0 1 0 0 0 0 1 0 0 0 0.4 0"/>
<feBlend mode="normal" in2="BackgroundImageFix" result="effect1_dropShadow_8_123"/>
<feBlend mode="normal" in="SourceGraphic" in2="effect1_dropShadow_8_123" result="shape"/>
</filter>
</defs>
</svg>
